<mxfile host="app.diagrams.net" modified="2024-02-01T13:19:22.392Z" agent="Mozilla/5.0 (Windows NT 10.0; Win64; x64) AppleWebKit/537.36 (KHTML, like Gecko) Chrome/120.0.0.0 Safari/537.36 OPR/106.0.0.0" etag="Fpf9p0ms0OzrnkxWu7Zl" version="23.1.0" type="device">
  <diagram name="Page-1" id="eRyn-TtAZhil7WrclDpa">
    <mxGraphModel dx="1189" dy="1278" grid="1" gridSize="10" guides="1" tooltips="1" connect="1" arrows="1" fold="1" page="0" pageScale="1" pageWidth="827" pageHeight="1169" math="0" shadow="0">
      <root>
        <mxCell id="0" />
        <mxCell id="1" parent="0" />
        <mxCell id="nmKjCIQiQyeEYJmltZNB-304" value="STM32F301" style="rounded=0;whiteSpace=wrap;html=1;" vertex="1" parent="1">
          <mxGeometry x="80" y="-40" width="120" height="120" as="geometry" />
        </mxCell>
        <mxCell id="nmKjCIQiQyeEYJmltZNB-305" value="MPU-6050&lt;br&gt;GYRO/ACCEL&lt;br&gt;sensor" style="rounded=0;whiteSpace=wrap;html=1;" vertex="1" parent="1">
          <mxGeometry x="160" y="-180" width="120" height="60" as="geometry" />
        </mxCell>
        <mxCell id="nmKjCIQiQyeEYJmltZNB-306" value="tactile switches" style="rounded=0;whiteSpace=wrap;html=1;" vertex="1" parent="1">
          <mxGeometry x="280" y="-40" width="120" height="60" as="geometry" />
        </mxCell>
        <mxCell id="nmKjCIQiQyeEYJmltZNB-308" value="2.8inch TFT touch screen 320x240 ILI9341 SPI" style="rounded=0;whiteSpace=wrap;html=1;" vertex="1" parent="1">
          <mxGeometry y="-180" width="120" height="60" as="geometry" />
        </mxCell>
        <mxCell id="nmKjCIQiQyeEYJmltZNB-309" value="&lt;p style=&quot;box-sizing: initial; margin: 0px; padding: 0px; border-width: 0px; border-style: solid; -webkit-font-smoothing: antialiased; --tw-shadow: 0 0 #0000; color: rgb(34, 34, 34); font-family: Roboto, &amp;quot;Noto Sans&amp;quot;, Arial, Helvetica, sans-serif, dk; letter-spacing: 0.12852px; text-align: start; background-color: rgba(0, 0, 0, 0.04);&quot;&gt;SP3071EEN-L&lt;/p&gt;&lt;p style=&quot;box-sizing: initial; margin: 0px; padding: 0px; border-width: 0px; border-style: solid; -webkit-font-smoothing: antialiased; --tw-shadow: 0 0 #0000; color: rgb(34, 34, 34); font-family: Roboto, &amp;quot;Noto Sans&amp;quot;, Arial, Helvetica, sans-serif, dk; letter-spacing: 0.12852px; text-align: start; background-color: rgba(0, 0, 0, 0.04);&quot;&gt;IC TRANSCEIVER&lt;/p&gt;" style="rounded=0;whiteSpace=wrap;html=1;" vertex="1" parent="1">
          <mxGeometry x="-120" y="-40" width="120" height="60" as="geometry" />
        </mxCell>
        <mxCell id="nmKjCIQiQyeEYJmltZNB-311" value="" style="endArrow=classic;startArrow=classic;html=1;rounded=0;entryX=0.25;entryY=1;entryDx=0;entryDy=0;exitX=0.75;exitY=0;exitDx=0;exitDy=0;" edge="1" parent="1" source="nmKjCIQiQyeEYJmltZNB-304" target="nmKjCIQiQyeEYJmltZNB-305">
          <mxGeometry width="50" height="50" relative="1" as="geometry">
            <mxPoint x="100" y="60" as="sourcePoint" />
            <mxPoint x="150" y="10" as="targetPoint" />
            <Array as="points">
              <mxPoint x="170" y="-80" />
              <mxPoint x="190" y="-80" />
            </Array>
          </mxGeometry>
        </mxCell>
        <mxCell id="nmKjCIQiQyeEYJmltZNB-312" value="" style="endArrow=classic;startArrow=classic;html=1;rounded=0;entryX=0.75;entryY=1;entryDx=0;entryDy=0;exitX=0.25;exitY=0;exitDx=0;exitDy=0;" edge="1" parent="1" source="nmKjCIQiQyeEYJmltZNB-304" target="nmKjCIQiQyeEYJmltZNB-308">
          <mxGeometry width="50" height="50" relative="1" as="geometry">
            <mxPoint x="100" y="60" as="sourcePoint" />
            <mxPoint x="150" y="10" as="targetPoint" />
            <Array as="points">
              <mxPoint x="110" y="-80" />
              <mxPoint x="90" y="-80" />
            </Array>
          </mxGeometry>
        </mxCell>
        <mxCell id="nmKjCIQiQyeEYJmltZNB-313" value="IIC" style="text;html=1;strokeColor=none;fillColor=none;align=center;verticalAlign=middle;whiteSpace=wrap;rounded=0;" vertex="1" parent="1">
          <mxGeometry x="170" y="-80" width="40" height="30" as="geometry" />
        </mxCell>
        <mxCell id="nmKjCIQiQyeEYJmltZNB-315" value="SPI" style="text;html=1;strokeColor=none;fillColor=none;align=center;verticalAlign=middle;whiteSpace=wrap;rounded=0;" vertex="1" parent="1">
          <mxGeometry x="60" y="-80" width="60" height="30" as="geometry" />
        </mxCell>
        <mxCell id="nmKjCIQiQyeEYJmltZNB-316" value="" style="endArrow=classic;startArrow=classic;html=1;rounded=0;entryX=0;entryY=0.25;entryDx=0;entryDy=0;exitX=1;exitY=0.5;exitDx=0;exitDy=0;" edge="1" parent="1" source="nmKjCIQiQyeEYJmltZNB-309" target="nmKjCIQiQyeEYJmltZNB-304">
          <mxGeometry width="50" height="50" relative="1" as="geometry">
            <mxPoint x="100" y="50" as="sourcePoint" />
            <mxPoint x="150" as="targetPoint" />
          </mxGeometry>
        </mxCell>
        <mxCell id="nmKjCIQiQyeEYJmltZNB-317" value="uart" style="text;html=1;strokeColor=none;fillColor=none;align=center;verticalAlign=middle;whiteSpace=wrap;rounded=0;" vertex="1" parent="1">
          <mxGeometry x="10" y="-40" width="60" height="30" as="geometry" />
        </mxCell>
        <mxCell id="nmKjCIQiQyeEYJmltZNB-318" value="" style="endArrow=classic;startArrow=classic;html=1;rounded=0;entryX=0;entryY=0.5;entryDx=0;entryDy=0;exitX=1;exitY=0.5;exitDx=0;exitDy=0;" edge="1" parent="1" source="nmKjCIQiQyeEYJmltZNB-319" target="nmKjCIQiQyeEYJmltZNB-309">
          <mxGeometry width="50" height="50" relative="1" as="geometry">
            <mxPoint x="-160" y="-10" as="sourcePoint" />
            <mxPoint x="-10" y="-20" as="targetPoint" />
          </mxGeometry>
        </mxCell>
        <mxCell id="nmKjCIQiQyeEYJmltZNB-319" value="connector" style="rounded=0;whiteSpace=wrap;html=1;" vertex="1" parent="1">
          <mxGeometry x="-320" y="-40" width="120" height="60" as="geometry" />
        </mxCell>
        <mxCell id="nmKjCIQiQyeEYJmltZNB-320" value="ST-LINK connector" style="rounded=0;whiteSpace=wrap;html=1;" vertex="1" parent="1">
          <mxGeometry x="-120" y="40" width="120" height="60" as="geometry" />
        </mxCell>
        <mxCell id="nmKjCIQiQyeEYJmltZNB-321" value="" style="endArrow=classic;startArrow=classic;html=1;rounded=0;entryX=0;entryY=0.75;entryDx=0;entryDy=0;exitX=1;exitY=0.5;exitDx=0;exitDy=0;" edge="1" parent="1" source="nmKjCIQiQyeEYJmltZNB-320" target="nmKjCIQiQyeEYJmltZNB-304">
          <mxGeometry width="50" height="50" relative="1" as="geometry">
            <mxPoint x="-60" y="30" as="sourcePoint" />
            <mxPoint x="-10" y="-20" as="targetPoint" />
            <Array as="points">
              <mxPoint x="40" y="70" />
              <mxPoint x="40" y="50" />
            </Array>
          </mxGeometry>
        </mxCell>
        <mxCell id="nmKjCIQiQyeEYJmltZNB-322" value="RS485" style="text;html=1;strokeColor=none;fillColor=none;align=center;verticalAlign=middle;whiteSpace=wrap;rounded=0;" vertex="1" parent="1">
          <mxGeometry x="-190" y="-40" width="60" height="30" as="geometry" />
        </mxCell>
        <mxCell id="nmKjCIQiQyeEYJmltZNB-323" value="uart" style="text;html=1;strokeColor=none;fillColor=none;align=center;verticalAlign=middle;whiteSpace=wrap;rounded=0;" vertex="1" parent="1">
          <mxGeometry x="10" y="20" width="60" height="30" as="geometry" />
        </mxCell>
        <mxCell id="nmKjCIQiQyeEYJmltZNB-324" value="" style="endArrow=none;html=1;rounded=0;entryX=0;entryY=0.5;entryDx=0;entryDy=0;exitX=1;exitY=0.25;exitDx=0;exitDy=0;" edge="1" parent="1" source="nmKjCIQiQyeEYJmltZNB-304" target="nmKjCIQiQyeEYJmltZNB-306">
          <mxGeometry width="50" height="50" relative="1" as="geometry">
            <mxPoint x="110" y="30" as="sourcePoint" />
            <mxPoint x="160" y="-20" as="targetPoint" />
          </mxGeometry>
        </mxCell>
      </root>
    </mxGraphModel>
  </diagram>
</mxfile>
